HIERARCHY
ROOT hip
{
	OFFSET 0.000000 0.000000 0.000000 
	CHANNELS 6 Xposition Yposition Zposition Xrotation Zrotation Yrotation
	JOINT abdomen
	{
		OFFSET 0.000000 3.402643 0.000000 
		CHANNELS 3 Xrotation Zrotation Yrotation
		JOINT chest
		{
			OFFSET 0.000000 8.438565 -0.680529 
			CHANNELS 3 Xrotation Zrotation Yrotation
			JOINT neck
			{
				OFFSET 0.000000 10.207942 -0.272212 
				CHANNELS 3 Xrotation Zrotation Yrotation
				JOINT head
				{
					OFFSET 0.000000 3.130431 0.000000 
					CHANNELS 3 Xrotation Zrotation Yrotation
					End Site
					{
						OFFSET 0.000000 3.130435 0.000000 
					}
				}
			}
			JOINT lCollar
			{
				OFFSET 3.470700 6.669187 -0.816635 
				CHANNELS 3 Yrotation Zrotation Xrotation
				JOINT lShldr
				{
					OFFSET 3.198488 0.000000 0.000000 
					CHANNELS 3 Zrotation Yrotation Xrotation
					JOINT lForeArm
					{
						OFFSET 10.139888 0.000000 0.000000 
						CHANNELS 3 Yrotation Zrotation Xrotation
						JOINT lHand
						{
							OFFSET 8.370511 0.000000 0.000000 
							CHANNELS 3 Zrotation Yrotation Xrotation
							End Site
							{
								OFFSET 4.083176 0.000000 0.000000 
							}
						}
					}
				}
			}
			JOINT rCollar
			{
				OFFSET -3.470700 6.669187 -0.816635 
				CHANNELS 3 Yrotation Zrotation Xrotation
				JOINT rShldr
				{
					OFFSET -3.198488 0.000000 0.000000 
					CHANNELS 3 Zrotation Yrotation Xrotation
					JOINT rForeArm
					{
						OFFSET -10.139888 0.000000 0.000000 
						CHANNELS 3 Yrotation Zrotation Xrotation
						JOINT rHand
						{
							OFFSET -8.370511 0.000000 0.000000 
							CHANNELS 3 Zrotation Yrotation Xrotation
							End Site
							{
								OFFSET -4.083176 0.000000 0.000000 
							}
						}
					}
				}
			}
		}
	}
	JOINT lThigh
	{
		OFFSET 5.308129 -1.633274 1.361059 
		CHANNELS 3 Xrotation Zrotation Yrotation
		JOINT lShin
		{
			OFFSET -2.041588 -20.007561 0.000000 
			CHANNELS 3 Xrotation Zrotation Yrotation
			JOINT lFoot
			{
				OFFSET 0.000000 -19.190928 -1.224953 
				CHANNELS 3 Xrotation Yrotation Zrotation
				End Site
				{
					OFFSET 0.000000 -2.449906 4.627600 
				}
			}
		}
	}
	JOINT rThigh
	{
		OFFSET -5.308129 -1.633274 1.361059 
		CHANNELS 3 Xrotation Zrotation Yrotation
		JOINT rShin
		{
			OFFSET 2.041588 -20.007561 0.000000 
			CHANNELS 3 Xrotation Zrotation Yrotation
			JOINT rFoot
			{
				OFFSET 0.000000 -19.190928 -1.224953 
				CHANNELS 3 Xrotation Yrotation Zrotation
				End Site
				{
					OFFSET 0.000000 -2.449906 4.627600 
				}
			}
		}
	}
}
MOTION
Frames: 18
Frame Time: 0.033333
-85.651161 8.238933 56.110699 21.982422 38.476563 127.584206 69.567680 -4.340477 2.732040 -9.677733 7.695314 0.489589 -0.009765 0.000000 0.000000 -17.978518 -16.103516 -4.208985 2.000000 -2.000000 0.000000 -105.253906 17.138672 -45.094780 -54.727322 0.951641 0.142399 39.792343 20.939623 -19.448536 -2.000000 2.000000 0.000000 72.998047 -15.175782 -32.834587 46.971485 -1.170156 0.197883 -64.540886 -48.479401 18.038374 -75.338394 0.995612 2.526684 31.389811 -5.078800 -3.166406 2.531113 -6.813438 -3.998691 -100.755753 -29.857157 -24.775860 96.731758 -1.132499 5.266054 17.647326 -7.672493 1.384501 
-85.760048 9.437418 55.914326 24.775391 39.101563 131.373352 69.136925 -3.997813 2.067215 -10.019530 7.714844 0.616545 -0.009765 0.000000 0.000000 -18.027344 -18.457031 -1.536295 2.000000 -2.000000 0.000000 -102.832031 15.498048 -44.655590 -51.917458 0.984277 0.032883 40.096798 17.393616 -17.864244 -2.000000 2.000000 0.000000 73.574219 -15.898437 -28.115234 47.318825 -0.981966 -0.005931 -66.951149 -48.347836 21.096422 -70.492790 3.114590 5.138891 24.485075 -4.902256 -2.369097 2.992922 -6.805694 -4.066333 -96.796227 -26.025160 -20.338224 89.254868 -0.048783 5.286242 10.856323 -9.678421 2.796709 
-85.764801 9.953868 55.767254 27.539061 39.462894 135.263672 68.713127 -3.671042 1.417346 -10.205078 7.724610 0.763031 -0.009765 0.000000 0.000000 -18.076172 -20.654295 1.386718 2.000000 -2.000000 0.000000 -100.117188 13.457031 -44.929367 -49.271904 0.888703 0.400261 41.025738 15.904553 -17.055433 -2.000000 2.000000 0.000000 74.189453 -16.601564 -23.733259 47.674191 -1.112822 0.220847 -69.828812 -48.734894 24.168301 -66.687294 3.983976 7.364861 20.783718 -5.194826 -2.254639 6.045181 -4.692689 -2.484740 -92.338142 -23.131504 -16.592379 82.263145 0.673906 5.660976 6.607780 -10.342507 3.356582 
-85.675934 10.085090 55.663918 30.683598 39.462894 139.361679 68.276932 -3.337345 0.749861 -10.556641 7.910157 0.938844 -0.009765 0.000000 0.000000 -18.535156 -22.646482 4.302881 2.000000 -2.000000 0.000000 -97.929688 12.070312 -44.931644 -47.164654 0.922484 0.310230 42.961338 15.062099 -13.853494 -2.000000 2.000000 0.000000 74.726563 -17.636721 -19.423828 47.311924 -0.852508 0.285202 -72.853859 -48.358730 27.277067 -62.452072 1.932819 6.451475 18.479294 -5.109826 -2.114254 11.734551 2.501963 0.032579 -87.055206 -21.071854 -12.753923 75.415077 1.191399 4.980825 6.963379 -7.390272 4.165092 
-85.504204 10.156602 55.598770 33.613285 39.423832 143.219101 67.661720 -2.981894 0.080092 -10.908202 7.929688 1.075566 -0.009765 0.000000 0.000000 -18.945314 -24.111328 7.197266 2.000000 -2.000000 0.000000 -96.406250 12.128905 -44.421776 -45.573357 0.590459 0.320222 48.465202 16.487059 -6.263931 -2.000000 2.000000 0.000000 75.566406 -18.671875 -16.874998 45.359383 -0.699645 0.675579 -77.558708 -47.710476 29.842691 -58.695812 -1.045355 4.213892 17.969984 -5.486656 -2.026699 18.686954 12.032853 2.371460 -81.176704 -20.095537 -9.266543 68.408752 1.679749 4.949881 8.746425 -1.685496 3.290476 
-85.259933 10.564275 55.566013 36.728519 39.218750 147.086258 67.238457 -2.580721 -0.739384 -11.259765 7.949219 1.202522 -0.009765 0.000000 0.000000 -19.902346 -25.175781 10.126952 2.000000 -2.000000 0.000000 -95.546875 12.910156 -43.816177 -44.527573 0.787164 0.337848 54.846195 18.239874 3.615464 -2.000000 2.000000 0.000000 77.285156 -22.382811 -15.673829 46.782043 -0.732149 0.399928 -80.764786 -47.800930 32.711590 -55.149006 -3.701145 2.905705 18.494911 -5.429159 -2.433265 26.440104 21.283482 2.833025 -75.174004 -19.550432 -6.127337 62.269474 2.245967 4.822429 10.222859 4.366118 2.476680 
-84.953743 10.836789 55.560230 39.804691 38.886723 151.080353 66.634628 -2.154461 -1.569875 -11.787109 8.144533 1.163493 -0.009765 0.000000 0.000000 -21.044926 -25.009764 12.675781 2.000000 -2.000000 0.000000 -95.322266 14.130858 -44.118710 -44.178993 0.955111 0.200709 59.897030 18.355022 12.445254 -2.000000 2.000000 0.000000 79.570313 -26.503904 -15.341797 47.839054 -0.823842 0.296684 -82.956619 -48.283463 35.093456 -52.047520 -4.316761 2.781275 19.728403 -5.467682 -2.411102 33.374935 27.644625 2.619672 -70.497208 -18.925554 -3.107474 58.239334 2.608727 4.634792 9.774017 9.265132 1.731670 
-84.550934 11.293991 55.580254 43.017578 38.701172 155.087891 66.009438 -1.799140 -2.239291 -12.138672 8.173829 1.279297 -0.009765 0.000000 0.000000 -22.753910 -23.574217 14.746093 2.000000 -2.000000 0.000000 -95.253906 16.621094 -46.035156 -44.527573 0.787164 0.337848 59.713249 17.152477 16.701788 -2.000000 2.000000 0.000000 81.904297 -29.765627 -15.957031 46.948586 -0.662751 0.384489 -83.871262 -48.435715 35.006893 -51.961411 -3.330057 6.219751 24.152067 -5.559144 -2.498160 33.442467 21.965183 -1.392404 -69.284363 -18.163525 -0.368205 60.176304 2.451134 4.738568 11.441597 5.108535 2.410297 
-84.028923 11.865169 55.627934 46.201176 38.369141 159.156448 65.573738 -1.379998 -3.051397 -12.666016 8.203126 1.388112 -0.009765 0.000000 0.000000 -24.062502 -21.220699 15.957033 2.000000 -2.000000 0.000000 -96.142578 19.384766 -48.287777 -45.238697 0.768076 0.016381 58.157543 15.323091 19.391273 -2.000000 2.000000 0.000000 85.439453 -33.095707 -17.636721 45.359646 -0.660072 0.668155 -84.346458 -48.454098 34.780678 -51.145046 -1.358780 12.345106 27.668161 -5.029722 -2.588609 33.151875 15.420450 -2.451217 -67.931183 -17.322853 2.566319 62.099628 2.265593 4.647194 13.530833 1.535572 2.671471 
-83.417137 12.604022 55.701290 49.326172 38.261715 163.076172 64.942192 -1.024975 -3.720980 -13.017578 8.398438 1.542969 -0.009765 0.000000 0.000000 -24.882813 -18.154297 16.611330 2.000000 -2.000000 0.000000 -97.509766 22.236328 -51.611328 -46.469383 1.049628 -0.019896 55.838058 13.741312 22.031090 -2.000000 2.000000 0.000000 88.193359 -35.800781 -19.287109 43.594986 -0.545877 0.557688 -84.900383 -48.251652 34.276115 -49.288280 1.647048 18.936798 31.338295 -4.786254 -2.901603 33.275185 9.089204 -1.782715 -66.104538 -16.590668 4.139476 63.836758 1.962704 4.774758 15.675628 -2.108845 3.010481 
-82.744820 13.830169 55.798378 54.121090 39.560547 168.232422 64.481255 -0.769737 -4.542267 -13.544923 8.417969 1.650391 -0.009765 0.000000 0.000000 -24.335941 -13.994140 16.230471 2.000000 -2.000000 0.000000 -98.261719 25.146484 -54.351318 -47.698654 1.033019 0.029989 54.858376 12.618160 25.704269 -2.000000 2.000000 0.000000 91.728516 -38.554691 -21.607649 43.249157 -0.545995 0.723849 -85.042427 -48.211056 33.306461 -45.971306 6.237078 24.127567 35.781361 -4.783060 -3.525039 32.637032 3.159045 -0.309028 -63.183922 -15.037631 4.520556 67.016541 1.963701 4.833521 18.350952 -6.060453 3.729150 
-82.041016 15.031548 55.917458 -119.531250 138.154297 -5.413405 63.843220 -0.415184 -5.211931 -13.906251 8.437500 1.591797 -0.009765 0.000000 0.000000 -23.164061 -8.759767 14.920389 2.000000 -2.000000 0.000000 -97.988281 27.802734 -56.787109 -50.854809 0.701745 0.382054 60.652313 11.333080 34.768238 -2.000000 2.000000 0.000000 95.419922 -40.664063 -23.027344 46.781521 -0.782050 0.416525 -84.676483 -47.130577 32.813396 -42.483883 11.595654 26.329603 40.863861 -4.690439 -3.581353 35.384102 -2.814625 -2.526602 -58.517086 -13.484850 3.043684 69.821770 1.699859 5.127665 20.592468 -8.912630 3.787187 
-81.335144 15.846546 56.056656 -114.775383 136.601578 -0.393681 63.374641 -0.154889 -6.020939 -14.257813 8.457032 1.720186 -0.009765 0.000000 0.000000 -22.207033 -3.427734 13.320314 2.000000 -2.000000 0.000000 -96.650391 30.117186 -58.359375 -55.261185 0.803766 0.287960 64.127655 11.769285 43.756111 -2.000000 2.000000 0.000000 98.388672 -42.041016 -23.632813 50.820446 -0.772409 0.583357 -84.357376 -45.621799 31.979990 -41.101791 14.109906 25.629238 45.432064 -4.121701 -4.183065 34.053181 -3.083168 -0.659884 -55.022717 -11.708038 0.678810 71.546349 1.406252 5.202439 23.971729 -11.813046 3.335724 
-80.656334 15.777810 56.214039 -114.091797 135.654297 1.969717 62.898899 0.037917 -6.678020 -14.599609 8.652344 1.875000 -0.009765 0.000000 0.000000 -22.529297 0.966797 11.708984 2.000000 -2.000000 0.000000 -95.742188 32.617184 -58.769531 -59.662651 0.894229 -0.000889 65.603806 13.863078 48.043530 -2.000000 2.000000 0.000000 100.195320 -41.074223 -23.561104 50.644909 -0.762081 0.574190 -83.668503 -44.022850 31.098619 -43.112022 15.124022 22.072807 47.904171 -4.056241 -3.903912 34.175114 -3.372744 -0.852974 -54.811802 -9.980514 -0.869612 71.922493 1.526490 4.880611 28.897888 -14.418181 3.188135 
-80.033791 14.667150 56.387726 -115.654297 134.697266 2.272566 62.575455 0.125749 -7.165897 -14.960938 8.662110 1.806641 -0.009765 0.000000 0.000000 -24.863285 4.306641 9.960939 2.000000 -2.000000 0.000000 -95.390625 34.160156 -58.720699 -62.995518 0.511892 0.315121 60.724842 17.928219 41.227348 -2.000000 2.000000 0.000000 100.117188 -41.230473 -21.601561 50.996231 -0.762661 0.583936 -82.248718 -42.253681 30.670555 -46.779537 15.160421 18.126099 48.434963 -4.192686 -4.549550 35.422634 -2.630645 -2.506152 -57.259007 -8.485812 -1.630924 72.610603 1.455080 5.027410 29.827070 -15.424246 4.817090 
-79.496849 13.231909 56.576000 -116.396492 134.199219 2.226562 62.064064 0.229340 -7.668654 -15.136719 8.662109 1.964361 -0.009765 0.000000 0.000000 -28.730467 7.089843 7.901597 2.000000 -2.000000 0.000000 -95.273438 35.771484 -57.357571 -66.158783 0.640359 0.336810 52.804565 22.258787 29.243811 -2.000000 2.000000 0.000000 98.027344 -44.941406 -17.965879 54.686611 -0.531602 0.646465 -80.706589 -39.772694 29.809978 -49.459221 15.154028 15.867006 49.345093 -4.336823 -4.208928 36.375217 -2.166616 -3.329093 -59.188091 -7.226821 -2.014337 72.974564 1.604514 5.055083 31.411848 -16.293182 5.720043 
-79.074715 11.579232 56.776772 -115.771484 134.111328 2.177733 62.028740 -0.147242 -7.496439 -15.146485 8.486329 1.933594 -0.009765 0.000000 0.000000 -32.998051 9.013671 4.921876 2.000000 -2.000000 0.000000 -93.193359 36.894531 -55.214848 -69.488266 0.408134 0.379979 43.797840 25.789803 18.319588 -2.000000 2.000000 0.000000 95.302734 -48.818359 -13.581568 59.609001 -0.452454 0.631619 -79.439011 -36.760395 29.085674 -50.604042 15.927105 16.527615 50.017529 -4.053858 -4.463722 37.827847 -1.469414 -2.413547 -60.717316 -7.001711 -2.570057 74.038773 1.484383 5.061535 32.478680 -17.054831 4.983696 
-78.879845 9.474332 57.038754 -115.117180 134.052734 1.803893 62.479977 -0.945305 -6.836163 -14.970704 8.310547 1.757813 -0.009765 0.000000 0.000000 -35.605469 9.902344 1.416015 2.000000 -2.000000 0.000000 -89.218750 38.291016 -53.535160 -74.414276 0.665177 0.589611 32.716995 29.770796 11.565052 -2.000000 2.000000 0.000000 92.324219 -51.728512 -9.353369 64.542496 -0.545297 0.547943 -76.710480 -34.349419 28.742977 -51.284096 16.754181 17.930387 50.043343 -3.939261 -4.425172 39.261944 -0.470760 -1.094851 -61.906876 -7.626301 -3.311370 74.195877 1.308620 4.946251 33.405846 -16.368128 4.909413 
